<svg width="21" height="20" viewBox="0 0 21 20" fill="none" xmlns="http://www.w3.org/2000/svg">
<path d="M16.8698 14.6551C16.6154 15.2374 16.3143 15.7734 15.9655 16.2661C15.49 16.9379 15.1007 17.4029 14.8007 17.6612C14.3356 18.085 13.8373 18.3021 13.3037 18.3144C12.9206 18.3144 12.4586 18.2064 11.9209 17.9873C11.3813 17.7692 10.8855 17.6612 10.4322 17.6612C9.95668 17.6612 9.44674 17.7692 8.90129 17.9873C8.35501 18.2064 7.91494 18.3206 7.57847 18.3319C7.06677 18.3535 6.55672 18.1303 6.04761 17.6612C5.72267 17.3803 5.31623 16.8988 4.82933 16.2168C4.30693 15.4884 3.87745 14.6438 3.54098 13.6808C3.18064 12.6407 3 11.6336 3 10.6585C3 9.54155 3.24355 8.57821 3.73138 7.77093C4.11477 7.12249 4.62482 6.61098 5.26318 6.23548C5.90154 5.85998 6.59129 5.66863 7.33409 5.65638C7.74053 5.65638 8.27352 5.78097 8.93586 6.02582C9.59633 6.27149 10.0204 6.39607 10.2064 6.39607C10.3454 6.39607 10.8165 6.2504 11.6151 5.95997C12.3704 5.69064 13.0078 5.57912 13.53 5.62305C14.945 5.73622 16.0081 6.28898 16.7151 7.28483C15.4496 8.04469 14.8236 9.10895 14.836 10.4742C14.8474 11.5377 15.2367 12.4226 16.0019 13.1253C16.3486 13.4514 16.7358 13.7035 17.1667 13.8825C17.0732 14.151 16.9746 14.4082 16.8698 14.6551ZM13.6245 2.00012C13.6245 2.83364 13.3172 3.6119 12.7047 4.33225C11.9655 5.1886 11.0714 5.68344 10.1019 5.60536C10.0896 5.50536 10.0824 5.40012 10.0824 5.28952C10.0824 4.48934 10.4339 3.63299 11.0582 2.9328C11.3698 2.57829 11.7662 2.28351 12.2468 2.04836C12.7265 1.81673 13.1802 1.68862 13.6068 1.66669C13.6193 1.77812 13.6245 1.88955 13.6245 2.0001V2.00012Z" fill="#56565C"/>
</svg>
