<svg width="21" height="20" viewBox="0 0 21 20" fill="none" xmlns="http://www.w3.org/2000/svg">
<path d="M10.5 2.5C6.35625 2.5 3 5.94114 3 10.1897C3 13.5924 5.14687 16.4664 8.12812 17.4853C8.50312 17.5526 8.64375 17.3219 8.64375 17.12C8.64375 16.9374 8.63438 16.3319 8.63438 15.6878C6.75 16.0435 6.2625 15.2168 6.1125 14.7843C6.02813 14.5632 5.6625 13.8808 5.34375 13.6981C5.08125 13.5539 4.70625 13.1983 5.33437 13.1887C5.925 13.1791 6.34687 13.7462 6.4875 13.9769C7.1625 15.1399 8.24063 14.8131 8.67188 14.6113C8.7375 14.1115 8.93437 13.775 9.15 13.5828C7.48125 13.3905 5.7375 12.7273 5.7375 9.78599C5.7375 8.94974 6.02813 8.25767 6.50625 7.71939C6.43125 7.52714 6.16875 6.73895 6.58125 5.68161C6.58125 5.68161 7.20937 5.47976 8.64375 6.46981C9.24375 6.29679 9.88125 6.21028 10.5188 6.21028C11.1562 6.21028 11.7938 6.29679 12.3938 6.46981C13.8281 5.47015 14.4563 5.68161 14.4563 5.68161C14.8688 6.73895 14.6062 7.52714 14.5312 7.71939C15.0094 8.25767 15.3 8.94013 15.3 9.78599C15.3 12.7369 13.5469 13.3905 11.8781 13.5828C12.15 13.8231 12.3844 14.2845 12.3844 15.0054C12.3844 16.0339 12.375 16.8605 12.375 17.12C12.375 17.3219 12.5156 17.5622 12.8906 17.4853C14.3795 16.97 15.6733 15.9889 16.5898 14.6801C17.5064 13.3714 17.9996 11.8009 18 10.1897C18 5.94114 14.6438 2.5 10.5 2.5Z" fill="#56565C"/>
</svg>
