<svg width="20" height="20" viewBox="0 0 20 20" fill="none" xmlns="http://www.w3.org/2000/svg">
<path d="M10.1529 5.39997C11.5899 5.39997 12.5593 6.0083 13.112 6.51666L15.2719 4.44999C13.9454 3.24167 12.2192 2.5 10.1529 2.5C7.15965 2.5 4.57462 4.18331 3.31613 6.63329L5.79061 8.51664C6.41141 6.70831 8.12908 5.39997 10.1529 5.39997Z" fill="#EB4335"/>
<path d="M5.79927 11.4834C5.63771 11.0167 5.54421 10.5167 5.54421 10C5.54421 9.48333 5.63771 8.98335 5.79077 8.51669L5.78649 8.41731L3.39456 6.59686L3.3163 6.63334C2.79762 7.65002 2.5 8.7917 2.5 10C2.5 11.2084 2.79762 12.35 3.3163 13.3667L5.79927 11.4834Z" fill="#FBBC05"/>
<path d="M10.1528 17.5C12.2191 17.5 13.9538 16.8333 15.2208 15.6833L12.8059 13.8499C12.1596 14.2916 11.2923 14.5999 10.1528 14.5999C8.12905 14.5999 6.41139 13.2916 5.79909 11.4833L5.70934 11.4907L3.34702 13.2824L3.31613 13.3666C4.57461 15.8166 7.15963 17.5 10.1528 17.5Z" fill="#34A853"/>
<path d="M17.5003 10.1664C17.5003 9.54977 17.4493 9.09978 17.3388 8.63312H10.1534V11.4164H14.3711C14.2861 12.1081 13.8269 13.1498 12.8065 13.8497L12.7922 13.9429L15.064 15.6677L15.2214 15.6831C16.667 14.3747 17.5003 12.4497 17.5003 10.1664Z" fill="#4285F4"/>
</svg>
